<?xml version="1.0" encoding="utf-8"?>
<!-- Generator: Adobe Illustrator 24.3.0, SVG Export Plug-In . SVG Version: 6.00 Build 0)  -->
<svg version="1.1" id="Capa_1" xmlns="http://www.w3.org/2000/svg" xmlns:xlink="http://www.w3.org/1999/xlink" x="0px" y="0px"
	 viewBox="0 0 240.9 155.9" style="enable-background:new 0 0 240.9 155.9;" xml:space="preserve">
<style type="text/css">
	.st0{fill:#FFFFFF;}
	.st1{fill:#4297C2;}
	.st2{fill:#3B93C0;}
	.st3{fill:#4699C3;}
	.st4{fill:#4498C3;}
	.st5{fill:#3F96C1;}
	.st6{fill:#4398C2;}
</style>
<path class="st0" d="M-212.9,41.5c-0.3,1.6-0.6,3.2-0.9,4.8c-0.2,1-0.5,2-0.7,3c-0.7,2.6-1.4,5.3-2,7.9c-0.6,2.6-1.2,5.3-1.9,7.9
	c-0.2,0.7-0.4,0.9-1.2,0.9c-1,0.1-2.1,0.2-3.1,0c-1.6-0.3-2.7-1.1-3.4-2.6c-1-2.1-1.3-4.4-1.8-6.5c-0.5-2-1-4-1.5-6
	c-0.6-2.4-1.2-4.8-1.7-7.1c-0.6-2.4-1.2-4.8-1.8-7.2c-0.2-0.9-0.4-1.8-0.7-2.6c-0.1-0.2,0-0.4,0.3-0.4c2.2,0,4.4,0,6.6,0
	c0.4,0,0.5,0.3,0.5,0.5c0.2,1.7,0.7,3.4,1,5.1c0.4,2.1,0.8,4.2,1.2,6.3c0.5,2.7,1,5.4,1.5,8.1c0.3,1.6,0.5,3.2,0.8,4.8
	c0.3-0.1,0.2-0.4,0.2-0.6c0.3-1.8,0.6-3.5,1.1-5.3c0.4-1.8,0.8-3.7,1.2-5.5c0.3-1.5,0.7-3,1-4.5c0.4-1.5,0.7-3.1,1.1-4.6
	c0.3-1.3,0.6-2.7,0.9-4c0.1-0.2,0.1-0.3,0.3-0.3c2.2,0,4.4,0,6.6,0c0.2,0,0.3,0,0.3,0.3c0.3,1.7,0.7,3.4,1.1,5.1
	c0.4,1.8,0.7,3.6,1.1,5.4c0.5,1.9,0.8,3.8,1.2,5.7c0.4,1.7,0.7,3.5,0.9,5.2c0.1,0.9,0.3,1.9,0.5,3c0.3-0.6,0.3-1.2,0.4-1.7
	c0.2-1,0.4-2.1,0.6-3.1c0.3-1.7,0.6-3.3,1-5c0.6-2.8,1.2-5.6,1.7-8.3c0.3-1.7,0.7-3.3,1-5c0.1-0.4,0.2-0.7,0.2-1.1
	c0-0.3,0.2-0.4,0.5-0.4c2,0,4,0,6,0c0.5,0,0.5,0.2,0.4,0.6c-0.7,2.7-1.5,5.5-2.2,8.2c-0.5,2-1,4-1.6,6c-0.5,1.8-0.9,3.6-1.4,5.4
	c-0.3,1-0.6,2.1-0.9,3.1c-0.6,2.1-1.1,4.2-1.7,6.3c-0.2,0.7-0.4,1.4-0.6,2.2c-0.1,0.2-0.2,0.3-0.5,0.4c-0.8,0.3-1.5,0.2-2.3,0.2
	c-1.6,0-3.2-0.4-4.3-1.7c-0.8-1-1.2-2.2-1.4-3.4c-0.4-1.8-0.8-3.6-1.1-5.4c-0.4-1.8-0.8-3.6-1.2-5.5c-0.3-1.4-0.6-2.8-0.9-4.3
	c-0.2-1.1-0.4-2.2-0.5-3.4C-212.8,42.1-212.9,41.8-212.9,41.5z"/>
<path class="st0" d="M-132.3,46.6c-1.8,0.1-3.2,1.6-3.6,3.3c-0.2,0.9-0.2,1.7-0.2,2.6c0,4.3,0,8.5,0,12.8c0,0.4-0.1,0.6-0.5,0.5
	c-1.8,0-3.6,0-5.4,0c-0.5,0-0.6-0.2-0.6-0.6c0-4.5,0-9,0-13.5c0-1.5-0.3-2.9-1.4-4c-0.8-0.9-1.8-1.2-3-1c-2.1,0.4-3.1,1.9-3.7,3.7
	c-0.1,0.4-0.1,0.9-0.1,1.4c0,4.5,0,9,0,13.5c0,0.5-0.1,0.6-0.6,0.6c-1.8,0-3.7,0-5.5,0c-0.3,0-0.5,0-0.5-0.4c0-7.9,0-15.8,0-23.7
	c0,0,0,0,0-0.1c0.3-0.1,0.7,0,1,0c1.5,0,3.1,0,4.6,0c0.2,0,0.4,0,0.5,0.1c0,1,0,2,0,3.1c0,0,0.1,0.1,0.1,0.1
	c1.7-2.7,4.1-3.8,7.1-3.7c3.1,0.1,5.3,1.5,6.6,4.3c0.7-1,1.6-1.9,2.6-2.7c1-0.8,2.2-1.3,3.4-1.5c1.5-0.2,3.1-0.3,4.6,0.3
	c1.4,0.5,2.6,1.4,3.4,2.6c0.9,1.3,1.5,2.8,1.6,4.4c0.5,5.6,0.1,11.2,0.2,16.8c0,0.4-0.2,0.4-0.5,0.4c-1.8,0-3.6,0-5.4,0
	c-0.5,0-0.6-0.1-0.6-0.6c0-4.4,0.1-8.9,0-13.3c0-1.5-0.3-2.9-1.3-4.1c-0.6-0.7-1.3-1.1-2.2-1.1C-131.7,46.5-132,46.5-132.3,46.6z"/>
<path class="st0" d="M-64.6,63.6c0,0.6,0,1.1,0,1.7c0,0.3-0.1,0.4-0.3,0.4c-0.8,0.3-1.6,0.3-2.5,0.5c-0.7,0.1-1.5,0.1-2.2,0.1
	c-1.5-0.1-3-0.4-4.2-1.3c-1.3-0.9-1.9-2.1-2.4-3.6c-0.5-1.8-0.4-3.6-0.4-5.4c0-7.3,0-14.5,0-21.8c0-0.2,0-0.4,0-0.6
	c0.2-0.1,0.5,0,0.7,0c1.7,0,3.4,0,5.2,0c0.2,0,0.4,0,0.5,0.1c0,2.3,0,4.6,0,7c0,0.5,0.1,0.6,0.6,0.6c1.7,0,3.4,0,5.1,0
	c0.1,0.3,0,0.6,0,0.9c0,1.6,0,3.1,0,4.7c0,0.2,0,0.4,0,0.5c-1.7,0-3.4,0-5.1,0c-0.5,0-0.6,0.1-0.6,0.6c0,2.9,0,5.8,0,8.7
	c0,1.1,0,2.2,0.8,3.1c0.5,0.6,1.2,0.9,1.9,1c0.8,0.1,1.6-0.1,2.3-0.2c0.3-0.1,0.4,0,0.4,0.3c0,0.3,0,0.6,0.1,0.9
	C-64.7,62.4-64.7,63-64.6,63.6z"/>
<path class="st0" d="M-161.9,33.7c0,0.2,0,0.4,0,0.5c0,10.3,0,20.6,0,30.9c0,0.5-0.1,0.6-0.6,0.6c-1.8,0-3.6,0-5.4,0
	c-0.4,0-0.5-0.1-0.5-0.5c0-10.5,0-21,0-31.4c0-0.1,0-0.1,0-0.2c0.2-0.1,0.4,0,0.6,0c1.8,0,3.6,0,5.4,0
	C-162.3,33.6-162.1,33.6-161.9,33.7z"/>
<path class="st0" d="M-87.6,46.1c0.3,0,0.3-0.2,0.4-0.4c0.7-1.9,2-3.3,3.8-4.2c1.2-0.6,2.4-0.5,3.7-0.5c0.2,0,0.4,0.2,0.3,0.4
	c0,1.9,0,3.7,0,5.6c0,0.4-0.2,0.4-0.5,0.3c-1.7-0.2-3.3-0.2-4.7,0.9c-0.9,0.7-1.5,1.6-1.9,2.7c-0.3,0.9-0.3,1.8-0.3,2.8
	c0,3.8,0,7.6,0,11.5c0,0.4-0.1,0.5-0.5,0.5c-1.9,0-3.8,0-5.8,0c-0.4,0-0.5-0.1-0.5-0.5c0-7.8,0-15.5,0-23.3c0-0.4,0.1-0.4,0.5-0.4
	c1.7,0,3.3,0,5,0c0.4,0,0.5,0.1,0.5,0.5C-87.6,43.4-87.6,44.8-87.6,46.1z"/>
<path class="st0" d="M133.3,86.9c-0.1-2.2,1-3.5,2.7-4.5c0.7-0.4,1.5-0.3,2.3,0c3.2,1.6,6.5,3.1,9.7,4.5c2.5,1.1,4.9,2.4,7.4,3.5
	c1,0.5,2,0.8,2.8,1.5c0.7,0.6,1,1.4,1.1,2.3c0.3,3.2-1.6,6.2-4.5,7.4c-1.3,0.5-2.5,0.3-3.6-0.5c-1.5-1.1-3-2.1-4.5-3.2
	c-2.1-1.5-4.2-3-6.2-4.4c-2.1-1.5-4.2-2.9-6.3-4.3C133.4,88.6,133.2,87.7,133.3,86.9z"/>
<path class="st0" d="M110.9,86.9c-0.1,0.6-0.1,1.5-1,2.1c-2.1,1.4-4.2,2.9-6.3,4.3c-2.6,1.8-5.1,3.6-7.7,5.4
	c-1.1,0.8-2.3,1.6-3.4,2.4c-1.3,0.9-3.3,0.8-4.7-0.3c-1.4-1.2-2.4-2.6-2.9-4.3c-0.4-1.3-0.4-2.6,0.3-3.9c0.6-1.3,1.9-1.5,3-2.1
	c2-1,4.1-1.9,6.2-2.9c1.8-0.8,3.7-1.6,5.5-2.4c1.9-0.9,3.9-1.8,5.9-2.7c1.4-0.6,2.8-0.4,3.8,0.7C110.4,84.2,110.9,85.4,110.9,86.9z"
	/>
<path class="st0" d="M107.1,72.9c-1.1,0.2-1.9-0.5-2.7-0.9c-1.5-0.7-3-1.4-4.5-2.1c-2.6-1.2-5.1-2.4-7.7-3.6
	c-1.9-0.9-3.8-1.7-5.6-2.6c-1.5-0.7-2-2.6-1.8-4.2c0.2-1.6,1-2.9,1.9-4.2c1.1-1.6,3.7-2.5,5.3-1.7c1,0.5,1.8,1.2,2.7,1.8
	c2,1.4,3.9,2.8,5.9,4.2c2.4,1.7,4.8,3.4,7.2,5.1c0.6,0.4,1.2,0.9,1.8,1.2c1.2,0.7,1.4,1.7,1.2,2.9c-0.2,1.6-1,2.9-2.5,3.8
	C108,72.8,107.5,73,107.1,72.9z"/>
<path class="st0" d="M133.3,68.2c-0.4-1.6,0.9-2.2,2-2.9c2.4-1.7,4.8-3.4,7.2-5.1c3.1-2.2,6.2-4.3,9.3-6.5c0.9-0.6,2.7-0.6,3.8,0.1
	c2.4,1.6,3.8,3.8,3.7,6.7c0,1.5-0.6,2.7-2.2,3.3c-2.9,1.3-5.8,2.7-8.7,4c-3.5,1.6-7,3.3-10.5,4.9c-1,0.5-1.9,0.1-2.7-0.5
	C134.1,71.4,133.2,70,133.3,68.2z"/>
<path class="st0" d="M127.7,40.1c-0.3,2.3-0.4,4.6-0.7,6.8c-0.1,1-0.1,2.1-0.2,3.1c-0.2,2.1-0.3,4.2-0.6,6.3
	c-0.1,0.9-0.1,1.9-0.2,2.8c-0.1,0.8-0.1,1.6-0.2,2.3c-0.2,1.4-1.2,2-2.5,2.2c-1.7,0.3-3.3,0.2-4.6-1.2c-0.4-0.4-0.5-0.9-0.5-1.3
	c0-1.6-0.3-3.2-0.4-4.8c-0.2-2-0.2-4.1-0.6-6.1c-0.1-0.9-0.1-1.8-0.2-2.7c-0.2-2.3-0.4-4.5-0.6-6.8c-0.3-2.8,0.7-4.1,3.6-5
	c1.6-0.5,3.4-0.5,5,0.3c1,0.4,1.8,1,2.4,1.9C127.8,38.7,127.7,39.4,127.7,40.1z"/>
<path class="st0" d="M122.2,119.3c-1.7,0.1-3.1-0.3-4.4-1.2c-1.5-1-1.6-2.4-1.4-3.9c0.1-0.7,0.2-1.5,0.3-2.2
	c0.2-2.6,0.4-5.1,0.7-7.7c0.1-1.4,0.2-2.8,0.3-4.2c0.1-2.1,0.4-4.1,0.5-6.2c0.1-1.4,1.2-2.1,2.4-2.5c1.3-0.4,2.7-0.3,4,0.5
	c0.9,0.5,1.3,1.2,1.4,2.3c0.2,2.2,0.3,4.4,0.6,6.5c0.2,1.3,0.3,2.7,0.4,4c0.2,2.6,0.4,5.1,0.6,7.7c0.1,1.2,0.3,2.4,0.2,3.6
	c-0.1,1-0.7,1.7-1.4,2.3C125,119,123.7,119.5,122.2,119.3z"/>
<path class="st1" d="M-161.9,33.7c-2.2,0-4.3,0-6.5,0c0-0.1,0.2-0.1,0.3-0.1c2,0,4,0,6,0C-162.1,33.6-162,33.5-161.9,33.7z"/>
<path class="st1" d="M-70.2,33.7c-2.1,0-4.3,0-6.4,0c0-0.1,0.2-0.1,0.3-0.1c2,0,3.9,0,5.9,0C-70.4,33.6-70.2,33.5-70.2,33.7z"/>
<path class="st2" d="M-64.5,47.4c0-2.1,0-4.1,0-6.2c0.1,0,0.1,0.2,0.1,0.3c0,1.9,0,3.8,0,5.6C-64.4,47.2-64.4,47.3-64.5,47.4z"/>
<path class="st3" d="M-151.2,41.6c-2.1,0-4.1,0-6.2,0c0-0.1,0.2-0.1,0.3-0.1c1.9,0,3.8,0,5.6,0C-151.3,41.5-151.2,41.4-151.2,41.6z"
	/>
<path class="st1" d="M-64.6,63.6c-0.2-0.6-0.1-1.2,0-1.8C-64.6,62.4-64.6,63-64.6,63.6z"/>
<path class="st4" d="M-118.8,58.4c0.1,0.4,0.1,0.8,0,1.2C-118.8,59.2-118.8,58.8-118.8,58.4z"/>
<path class="st1" d="M-132.3,46.6c0.3-0.1,0.6-0.1,0.9,0C-131.7,46.6-132,46.6-132.3,46.6z"/>
<path class="st5" d="M-97.7,62.3c-0.2-0.2-0.1-0.5-0.1-0.8C-97.6,61.8-97.7,62-97.7,62.3z"/>
<g>
	<path class="st0" d="M-172.5,65.5c-0.1-0.9-0.3-1.8-0.2-2.8c-0.1-0.2-0.1-0.4,0-0.5c-0.1-0.2-0.1-0.5-0.1-0.7c0-3.1,0-6.1,0-9.2
		c0-2.1-0.1-4.1-0.9-6.1c-0.7-1.7-1.9-3-3.5-3.9c-1.5-0.9-3.2-1.1-4.9-1.2c-1.7-0.1-3.3,0.1-4.9,0.3c-1.6,0.3-3.2,0.8-4.7,1.6
		c-0.3,0.1-0.3,0.3-0.3,0.5c0.4,1.3,0.8,2.5,1.1,3.8c0,0.2,0.1,0.3,0.4,0.1c0.4-0.3,0.8-0.5,1.3-0.6c1.9-0.7,3.9-1.3,6-1
		c0.9,0.1,1.7,0.4,2.4,0.9c1,0.7,1.4,1.8,1.3,3.1c-0.3,0.2-0.6,0-0.9,0.1c-1.5,0-3,0.1-4.5,0.4c-1.9,0.4-3.7,0.9-5.3,2
		c-2.1,1.4-3.3,3.4-3.5,5.9c-0.2,2,0.3,3.9,1.6,5.4c1,1.2,2.2,2,3.7,2.4c1.4,0.4,2.9,0.4,4.4,0.1c2-0.4,3.7-1.2,4.9-2.8
		c0.2-0.2,0.2-0.2,0.3,0.1c0.2,0.6,0.6,1.1,1,1.6c1.4,1.4,3.6,1.3,5.2,0.8C-172.4,65.7-172.5,65.6-172.5,65.5z M-179.3,55.9
		c0,1,0.1,2-0.3,2.9c-0.7,1.5-1.9,2.3-3.5,2.6c-1.4,0.3-3.2-0.3-3.8-1.8c-0.5-1.1,0-3.1,1-3.9c1.1-0.9,2.4-1.2,3.7-1.4
		c0.8-0.1,1.7-0.2,2.5-0.2c0.3,0,0.4,0.1,0.4,0.4C-179.4,55-179.3,55.4-179.3,55.9z"/>
	<path class="st0" d="M-179.6,49.8c-0.3,0.2-0.6,0.1-0.9,0.1C-180.2,49.7-179.9,49.8-179.6,49.8z"/>
	<path class="st0" d="M-172.7,62.7c-0.1-0.2-0.1-0.4,0-0.5C-172.7,62.4-172.7,62.5-172.7,62.7z"/>
</g>
<g>
	<path class="st0" d="M-97.4,65.5c-0.3-1-0.3-2.1-0.3-3.2c-0.1-0.2,0-0.5-0.1-0.8c0-3.5,0-7,0-10.5c0-1.4-0.2-2.8-0.7-4.2
		c-0.6-1.7-1.5-3.1-3-4.1c-1.8-1.2-3.8-1.6-5.9-1.7c-1.4-0.1-2.8,0.1-4.2,0.3c-1.8,0.3-3.5,0.8-5.2,1.6c-0.3,0.1-0.3,0.2-0.2,0.6
		c0.3,1.2,0.7,2.3,1,3.5c0.1,0.4,0.2,0.5,0.7,0.3c0.9-0.6,1.9-0.9,2.9-1.1c0.8-0.2,1.6-0.3,2.5-0.4c1.2-0.1,2.3,0,3.3,0.4
		c1.5,0.6,2.1,1.9,2.1,3.5c-0.3,0.2-0.6,0-0.9,0.1c-1.9,0-3.7,0.2-5.5,0.6c-1.4,0.3-2.8,0.8-4,1.6c-1.7,1-2.9,2.5-3.5,4.4
		c-0.2,0.6-0.2,1.3-0.3,1.9c0.1,0.4,0.1,0.8,0,1.2c0,0.1,0.1,0.2,0.1,0.3c0,1.3,0.5,2.4,1.2,3.3c1.1,1.6,2.7,2.5,4.6,2.9
		c2.2,0.4,4.3,0.1,6.2-0.8c1-0.5,1.9-1.3,2.6-2.1c1,3,3.9,3.4,6.4,2.6C-97.4,65.7-97.4,65.7-97.4,65.5z M-104.3,54.6
		c-0.1,1.2,0.1,2.3-0.1,3.5c-0.2,1.1-0.8,1.8-1.6,2.4c-0.7,0.6-1.6,0.8-2.5,1c-1.3,0.2-2.8-0.6-3.3-1.8c-0.1-0.3-0.2-0.6-0.2-0.9
		c-0.1-0.3-0.1-0.6,0-0.9c0.3-2.1,1.7-2.9,3.5-3.4c1.2-0.3,2.5-0.5,3.8-0.5C-104.5,54.1-104.3,54.2-104.3,54.6z"/>
	<path class="st0" d="M-104.6,49.8c-0.3,0.2-0.6,0.1-0.9,0.1C-105.2,49.7-104.9,49.8-104.6,49.8z"/>
</g>
<path class="st6" d="M-112.1,57.9c0,0.3,0,0.6,0,0.9C-112.2,58.5-112.2,58.2-112.1,57.9z"/>
</svg>
