<?xml version="1.0" encoding="utf-8"?>
<!-- Generator: Adobe Illustrator 24.3.0, SVG Export Plug-In . SVG Version: 6.00 Build 0)  -->
<svg version="1.1" id="Capa_1" xmlns="http://www.w3.org/2000/svg" xmlns:xlink="http://www.w3.org/1999/xlink" x="0px" y="0px"
	 viewBox="0 0 240.9 155.9" style="enable-background:new 0 0 240.9 155.9;" xml:space="preserve">
<style type="text/css">
	.st0{fill:#007DC6;}
	.st1{fill:#4297C2;}
	.st2{fill:#3B93C0;}
	.st3{fill:#4699C3;}
	.st4{fill:#4498C3;}
	.st5{fill:#3F96C1;}
	.st6{fill:#4398C2;}
</style>
<path class="st0" d="M42.7,71.9c-0.4,1.9-0.7,3.9-1.1,5.8c-0.3,1.2-0.6,2.4-0.9,3.7c-0.8,3.2-1.6,6.4-2.4,9.6
	c-0.8,3.2-1.5,6.4-2.4,9.6c-0.2,0.8-0.5,1-1.5,1.1c-1.3,0.1-2.5,0.3-3.8,0c-1.9-0.4-3.3-1.4-4.2-3.2c-1.2-2.5-1.5-5.3-2.2-8
	c-0.6-2.4-1.2-4.9-1.8-7.3c-0.7-2.9-1.4-5.8-2.1-8.7c-0.7-2.9-1.4-5.8-2.1-8.7c-0.3-1.1-0.5-2.1-0.8-3.2c-0.1-0.3,0-0.5,0.3-0.5
	c2.7,0,5.3,0,8,0c0.5,0,0.6,0.4,0.6,0.6c0.3,2.1,0.8,4.1,1.2,6.2c0.4,2.6,1,5.1,1.5,7.7c0.6,3.3,1.3,6.5,1.8,9.8
	c0.4,2,0.6,3.9,1,5.9c0.4-0.2,0.2-0.5,0.3-0.7c0.4-2.1,0.8-4.3,1.3-6.4c0.5-2.2,1-4.5,1.5-6.7c0.4-1.8,0.8-3.7,1.3-5.5
	c0.4-1.9,0.9-3.7,1.4-5.6c0.4-1.6,0.8-3.2,1.1-4.9c0.1-0.3,0.1-0.4,0.4-0.4c2.7,0,5.4,0,8.1,0c0.3,0,0.4,0,0.4,0.3
	c0.4,2.1,0.9,4.1,1.3,6.2c0.5,2.2,0.8,4.4,1.3,6.5c0.6,2.3,1,4.6,1.5,7c0.4,2.1,0.9,4.2,1.1,6.3c0.2,1.2,0.4,2.3,0.6,3.6
	c0.4-0.8,0.3-1.5,0.4-2.1c0.2-1.3,0.5-2.5,0.7-3.8c0.4-2,0.8-4.1,1.2-6.1c0.7-3.4,1.4-6.8,2.1-10.2c0.4-2,0.9-4,1.2-6
	c0.1-0.4,0.2-0.9,0.3-1.3c0-0.3,0.2-0.5,0.6-0.5c2.4,0,4.9,0,7.3,0c0.6,0,0.6,0.2,0.5,0.7c-0.9,3.3-1.8,6.7-2.7,10
	c-0.6,2.4-1.3,4.9-1.9,7.3c-0.6,2.2-1.1,4.4-1.7,6.6c-0.3,1.3-0.7,2.5-1,3.8c-0.7,2.6-1.3,5.1-2,7.7c-0.2,0.9-0.4,1.8-0.7,2.6
	c-0.1,0.3-0.2,0.4-0.6,0.5c-0.9,0.3-1.9,0.3-2.8,0.3c-2,0-3.9-0.4-5.2-2.1c-1-1.2-1.4-2.7-1.7-4.1c-0.5-2.2-1-4.3-1.4-6.5
	c-0.4-2.2-1-4.4-1.4-6.7c-0.3-1.7-0.7-3.5-1.1-5.2c-0.2-1.4-0.5-2.7-0.6-4.1C42.9,72.6,42.7,72.3,42.7,71.9z"/>
<path class="st0" d="M140.9,78.1c-2.1,0.1-3.9,2-4.4,4c-0.2,1-0.3,2.1-0.3,3.1c0,5.2,0,10.4,0,15.6c0,0.5-0.1,0.7-0.7,0.7
	c-2.2,0-4.4,0-6.6,0c-0.6,0-0.7-0.2-0.7-0.8c0-5.5,0-11,0-16.5c0-1.8-0.3-3.5-1.7-4.9c-1-1-2.2-1.5-3.6-1.2
	c-2.6,0.4-3.8,2.3-4.5,4.5c-0.2,0.5-0.2,1.1-0.2,1.7c0,5.5,0,10.9,0,16.4c0,0.6-0.2,0.7-0.7,0.7c-2.2,0-4.5,0-6.7,0
	c-0.4,0-0.6,0-0.6-0.5c0-9.6,0-19.2,0-28.9c0,0,0,0,0-0.1c0.4-0.1,0.8-0.1,1.2-0.1c1.9,0,3.7,0,5.6,0c0.2,0,0.4-0.1,0.6,0.1
	c0,1.2,0,2.5,0,3.7c0,0,0.1,0.1,0.1,0.1c2-3.2,4.9-4.6,8.7-4.5c3.8,0.1,6.4,1.8,8,5.2c0.9-1.3,1.9-2.4,3.1-3.3
	c1.3-0.9,2.7-1.5,4.2-1.8c1.9-0.3,3.7-0.3,5.5,0.4c1.7,0.7,3.1,1.7,4.2,3.2c1.1,1.6,1.8,3.4,2,5.4c0.7,6.8,0.1,13.6,0.3,20.5
	c0,0.5-0.2,0.5-0.6,0.5c-2.2,0-4.4,0-6.6,0c-0.6,0-0.8-0.1-0.8-0.7c0-5.4,0.1-10.8,0-16.2c0-1.8-0.3-3.5-1.5-5
	c-0.7-0.8-1.6-1.3-2.7-1.4C141.6,78,141.2,78,140.9,78.1z"/>
<path class="st0" d="M223.3,98.8c0,0.7,0,1.4,0,2c0,0.3-0.1,0.4-0.4,0.5c-1,0.3-2,0.4-3,0.6c-0.9,0.2-1.8,0.2-2.7,0.1
	c-1.8-0.1-3.6-0.5-5.1-1.6c-1.5-1.1-2.4-2.6-2.9-4.4c-0.6-2.2-0.5-4.3-0.5-6.5c0-8.8,0-17.7,0-26.5c0-0.2,0-0.5,0-0.7
	c0.3-0.1,0.6-0.1,0.8-0.1c2.1,0,4.2,0,6.3,0c0.2,0,0.4-0.1,0.6,0.1c0,2.8,0,5.6,0,8.5c0,0.5,0.1,0.7,0.7,0.7c2.1,0,4.1,0,6.2,0
	c0.1,0.4,0.1,0.7,0.1,1.1c0,1.9,0,3.8,0,5.7c0,0.2,0.1,0.4-0.1,0.6c-2.1,0-4.2,0-6.2,0c-0.6,0-0.7,0.2-0.7,0.7c0,3.5,0,7.1,0,10.6
	c0,1.3,0.1,2.7,0.9,3.8c0.6,0.8,1.4,1.1,2.3,1.2c1,0.1,1.9-0.1,2.9-0.3c0.4-0.1,0.5,0,0.5,0.4c0,0.4,0,0.7,0.1,1.1
	C223.2,97.3,223.2,98.1,223.3,98.8z"/>
<path class="st0" d="M104.8,62.4c0,0.2,0,0.4,0,0.7c0,12.6,0,25.1,0,37.7c0,0.6-0.1,0.8-0.7,0.8c-2.2,0-4.4,0-6.6,0
	c-0.4,0-0.6-0.1-0.6-0.6c0-12.8,0-25.5,0-38.3c0-0.1,0-0.2,0-0.3c0.2-0.1,0.5-0.1,0.7-0.1c2.2,0,4.4,0,6.5,0
	C104.4,62.3,104.6,62.3,104.8,62.4z"/>
<path class="st0" d="M195.3,77.5c0.3,0,0.4-0.3,0.5-0.5c0.9-2.3,2.5-4,4.7-5.1c1.4-0.7,3-0.6,4.5-0.6c0.3,0,0.4,0.2,0.4,0.5
	c0,2.3,0,4.5,0,6.8c0,0.5-0.3,0.5-0.6,0.4c-2-0.3-4-0.2-5.7,1.1c-1.1,0.8-1.9,1.9-2.3,3.2c-0.3,1.1-0.4,2.2-0.4,3.4
	c0,4.7,0,9.3,0,14c0,0.5-0.1,0.7-0.7,0.7c-2.3,0-4.7,0-7,0c-0.4,0-0.6-0.1-0.6-0.6c0-9.4,0-18.9,0-28.3c0-0.5,0.2-0.5,0.6-0.5
	c2,0,4,0,6,0c0.5,0,0.6,0.2,0.6,0.6C195.3,74.3,195.3,75.9,195.3,77.5z"/>
<path class="st1" d="M104.8,62.4c-2.6,0-5.3,0-7.9,0c0.1-0.2,0.2-0.1,0.3-0.1c2.4,0,4.8,0,7.3,0C104.6,62.2,104.8,62.2,104.8,62.4z"
	/>
<path class="st1" d="M216.5,62.4c-2.6,0-5.2,0-7.8,0c0.1-0.2,0.2-0.1,0.3-0.1c2.4,0,4.7,0,7.1,0C216.3,62.2,216.5,62.2,216.5,62.4z"
	/>
<path class="st2" d="M223.4,79c0-2.5,0-5,0-7.5c0.2,0.1,0.1,0.2,0.1,0.3c0,2.3,0,4.6,0,6.9C223.6,78.8,223.6,79,223.4,79z"/>
<path class="st3" d="M117.9,72c-2.5,0-5,0-7.5,0c0.1-0.2,0.2-0.1,0.3-0.1c2.3,0,4.6,0,6.9,0C117.7,71.9,117.9,71.9,117.9,72z"/>
<path class="st1" d="M223.3,98.8c-0.2-0.7-0.2-1.5,0-2.2C223.3,97.3,223.3,98.1,223.3,98.8z"/>
<path class="st4" d="M157.3,92.4c0.2,0.5,0.2,1,0,1.5C157.3,93.4,157.3,92.9,157.3,92.4z"/>
<path class="st1" d="M140.9,78.1c0.3-0.2,0.7-0.2,1,0C141.6,78.1,141.2,78.1,140.9,78.1z"/>
<path class="st5" d="M183,97.2c-0.2-0.3-0.1-0.6-0.1-0.9C183.1,96.6,183,96.9,183,97.2z"/>
<g>
	<path class="st0" d="M92,101.1c-0.1-1.1-0.3-2.3-0.3-3.4c-0.1-0.2-0.1-0.4,0-0.7c-0.1-0.3-0.1-0.6-0.1-0.8c0-3.7,0-7.5,0-11.2
		c0-2.5-0.2-5-1.2-7.4c-0.9-2.1-2.3-3.7-4.2-4.7c-1.8-1-3.9-1.3-6-1.5c-2-0.2-4,0.1-6,0.4c-2,0.4-3.9,1-5.7,1.9
		c-0.3,0.2-0.4,0.3-0.3,0.6c0.5,1.5,1,3.1,1.3,4.7c0.1,0.2,0.2,0.4,0.5,0.2c0.5-0.3,1-0.6,1.6-0.8c2.4-0.8,4.7-1.5,7.3-1.2
		c1.1,0.1,2.1,0.4,2.9,1.1c1.2,0.9,1.6,2.2,1.6,3.7c-0.3,0.2-0.7,0-1.1,0.1c-1.9,0-3.7,0.2-5.5,0.5c-2.3,0.4-4.5,1.1-6.4,2.4
		c-2.6,1.7-4,4.1-4.3,7.2c-0.2,2.4,0.4,4.7,1.9,6.6c1.2,1.4,2.7,2.4,4.5,2.9c1.8,0.5,3.5,0.5,5.3,0.2c2.4-0.5,4.5-1.5,6-3.4
		c0.2-0.3,0.3-0.2,0.4,0.1c0.2,0.7,0.7,1.4,1.3,1.9c1.7,1.7,4.4,1.6,6.4,1C92.1,101.4,92,101.3,92,101.1z M83.6,89.5
		c0,1.2,0.1,2.4-0.4,3.5c-0.8,1.8-2.3,2.8-4.2,3.2c-1.8,0.4-3.8-0.4-4.6-2.2c-0.6-1.4,0-3.8,1.2-4.7c1.3-1.1,2.9-1.5,4.5-1.7
		c1-0.2,2-0.3,3.1-0.3c0.4,0,0.5,0.1,0.5,0.5C83.6,88.3,83.6,88.9,83.6,89.5z"/>
	<path class="st0" d="M83.4,82c-0.3,0.3-0.7,0.1-1.1,0.1C82.6,81.9,83,82,83.4,82z"/>
	<path class="st0" d="M91.7,97.7c-0.2-0.2-0.1-0.4,0-0.7C91.7,97.3,91.7,97.5,91.7,97.7z"/>
</g>
<g>
	<path class="st0" d="M183.4,101.1c-0.4-1.3-0.3-2.6-0.4-3.9c-0.1-0.3,0-0.6-0.1-0.9c0-4.3,0-8.5,0-12.8c0-1.7-0.2-3.4-0.8-5.1
		c-0.7-2-1.8-3.8-3.7-5c-2.2-1.4-4.6-1.9-7.2-2.1c-1.7-0.1-3.4,0.1-5.1,0.4c-2.2,0.3-4.3,1-6.3,2c-0.3,0.2-0.4,0.3-0.3,0.7
		c0.3,1.5,0.9,2.8,1.2,4.3c0.1,0.5,0.3,0.7,0.8,0.3c1.1-0.7,2.3-1.1,3.5-1.4c1-0.2,2-0.4,3-0.5c1.4-0.2,2.8,0,4,0.5
		c1.9,0.8,2.6,2.3,2.6,4.3c-0.3,0.2-0.7,0-1.1,0.1c-2.3,0-4.5,0.3-6.7,0.8c-1.7,0.4-3.4,1-4.9,1.9c-2.1,1.3-3.5,3-4.3,5.4
		c-0.2,0.8-0.2,1.5-0.4,2.3c0.1,0.5,0.1,1,0,1.5c0,0.1,0.1,0.2,0.1,0.4c0,1.5,0.6,2.9,1.5,4.1c1.4,1.9,3.3,3.1,5.6,3.5
		c2.7,0.5,5.2,0.1,7.6-1c1.3-0.6,2.3-1.5,3.2-2.6c1.3,3.7,4.8,4.1,7.8,3.2C183.4,101.4,183.4,101.3,183.4,101.1z M174.9,87.8
		c-0.1,1.4,0.1,2.8-0.1,4.3c-0.2,1.3-1,2.2-2,3c-0.9,0.7-1.9,1-3,1.2c-1.5,0.2-3.4-0.8-4-2.2c-0.2-0.3-0.2-0.7-0.3-1.1
		c-0.1-0.4-0.1-0.7,0-1.1c0.3-2.5,2.1-3.5,4.2-4.1c1.5-0.4,3-0.6,4.6-0.6C174.8,87.3,175,87.3,174.9,87.8z"/>
	<path class="st0" d="M174.7,82c-0.3,0.3-0.7,0.1-1.1,0.1C173.9,81.9,174.3,82,174.7,82z"/>
</g>
<path class="st6" d="M165.5,91.9c0,0.3,0,0.7,0,1.1C165.3,92.6,165.3,92.3,165.5,91.9z"/>
</svg>
