<?xml version="1.0" encoding="utf-8"?>
<!-- Generator: Adobe Illustrator 24.3.0, SVG Export Plug-In . SVG Version: 6.00 Build 0)  -->
<svg version="1.1" id="Capa_1" xmlns="http://www.w3.org/2000/svg" xmlns:xlink="http://www.w3.org/1999/xlink" x="0px" y="0px"
	 viewBox="0 0 240.9 155.9" style="enable-background:new 0 0 240.9 155.9;" xml:space="preserve">
<style type="text/css">
	.st0{fill:#FFFFFF;}
	.st1{fill:#FCBA30;}
	.st2{fill:#4297C2;}
	.st3{fill:#3B93C0;}
	.st4{fill:#4699C3;}
	.st5{fill:#4498C3;}
	.st6{fill:#3F96C1;}
	.st7{fill:#4398C2;}
</style>
<g>
	<path class="st0" d="M26.7,76.5c-0.3,1.6-0.6,3.2-0.9,4.8c-0.2,1-0.5,2-0.7,3c-0.7,2.6-1.4,5.3-2,7.9c-0.6,2.6-1.2,5.3-1.9,7.9
		c-0.2,0.7-0.4,0.9-1.2,0.9c-1,0.1-2.1,0.2-3.1,0c-1.6-0.3-2.7-1.1-3.4-2.6c-1-2.1-1.3-4.4-1.8-6.5c-0.5-2-1-4-1.5-6
		c-0.6-2.4-1.2-4.8-1.7-7.1c-0.6-2.4-1.2-4.8-1.8-7.2c-0.2-0.9-0.4-1.8-0.7-2.6c-0.1-0.2,0-0.4,0.3-0.4c2.2,0,4.4,0,6.6,0
		c0.4,0,0.5,0.3,0.5,0.5c0.2,1.7,0.7,3.4,1,5.1c0.4,2.1,0.8,4.2,1.2,6.3c0.5,2.7,1,5.4,1.5,8.1c0.3,1.6,0.5,3.2,0.8,4.8
		c0.3-0.1,0.2-0.4,0.2-0.6c0.3-1.8,0.6-3.5,1.1-5.3c0.4-1.8,0.8-3.7,1.2-5.5c0.3-1.5,0.7-3,1-4.5c0.4-1.5,0.7-3.1,1.1-4.6
		c0.3-1.3,0.6-2.7,0.9-4c0.1-0.2,0.1-0.3,0.3-0.3c2.2,0,4.4,0,6.6,0c0.2,0,0.3,0,0.3,0.3c0.3,1.7,0.7,3.4,1.1,5.1
		c0.4,1.8,0.7,3.6,1.1,5.4c0.5,1.9,0.8,3.8,1.2,5.7c0.4,1.7,0.7,3.5,0.9,5.2c0.1,0.9,0.3,1.9,0.5,3c0.3-0.6,0.3-1.2,0.4-1.7
		c0.2-1,0.4-2.1,0.6-3.1c0.3-1.7,0.6-3.3,1-5c0.6-2.8,1.2-5.6,1.7-8.3c0.3-1.7,0.7-3.3,1-5c0.1-0.4,0.2-0.7,0.2-1.1
		c0-0.3,0.2-0.4,0.5-0.4c2,0,4,0,6,0c0.5,0,0.5,0.2,0.4,0.6c-0.7,2.7-1.5,5.5-2.2,8.2c-0.5,2-1,4-1.6,6c-0.5,1.8-0.9,3.6-1.4,5.4
		c-0.3,1-0.6,2.1-0.9,3.1c-0.6,2.1-1.1,4.2-1.7,6.3c-0.2,0.7-0.4,1.4-0.6,2.2c-0.1,0.2-0.2,0.3-0.5,0.4c-0.8,0.3-1.5,0.2-2.3,0.2
		c-1.6,0-3.2-0.4-4.3-1.7c-0.8-1-1.2-2.2-1.4-3.4c-0.4-1.8-0.8-3.6-1.1-5.4c-0.4-1.8-0.8-3.6-1.2-5.5c-0.3-1.4-0.6-2.8-0.9-4.3
		c-0.2-1.1-0.4-2.2-0.5-3.4C26.9,77.1,26.7,76.8,26.7,76.5z"/>
	<path class="st0" d="M107.4,81.6c-1.8,0.1-3.2,1.6-3.6,3.3c-0.2,0.9-0.2,1.7-0.2,2.6c0,4.3,0,8.5,0,12.8c0,0.4-0.1,0.6-0.5,0.5
		c-1.8,0-3.6,0-5.4,0c-0.5,0-0.6-0.2-0.6-0.6c0-4.5,0-9,0-13.5c0-1.5-0.3-2.9-1.4-4c-0.8-0.9-1.8-1.2-3-1c-2.1,0.4-3.1,1.9-3.7,3.7
		c-0.1,0.4-0.1,0.9-0.1,1.4c0,4.5,0,9,0,13.5c0,0.5-0.1,0.6-0.6,0.6c-1.8,0-3.7,0-5.5,0c-0.3,0-0.5,0-0.5-0.4c0-7.9,0-15.8,0-23.7
		c0,0,0,0,0-0.1c0.3-0.1,0.7,0,1,0c1.5,0,3.1,0,4.6,0c0.2,0,0.4,0,0.5,0.1c0,1,0,2,0,3.1c0,0,0.1,0.1,0.1,0.1
		c1.7-2.7,4.1-3.8,7.1-3.7c3.1,0.1,5.3,1.5,6.6,4.3c0.7-1,1.6-1.9,2.6-2.7c1-0.8,2.2-1.3,3.4-1.5c1.5-0.2,3.1-0.3,4.6,0.3
		c1.4,0.5,2.6,1.4,3.4,2.6c0.9,1.3,1.5,2.8,1.6,4.4c0.5,5.6,0.1,11.2,0.2,16.8c0,0.4-0.2,0.4-0.5,0.4c-1.8,0-3.6,0-5.4,0
		c-0.5,0-0.6-0.1-0.6-0.6c0-4.4,0.1-8.9,0-13.3c0-1.5-0.3-2.9-1.3-4.1c-0.6-0.7-1.3-1.1-2.2-1.1C107.9,81.6,107.6,81.6,107.4,81.6z"
		/>
	<path class="st0" d="M175,98.6c0,0.6,0,1.1,0,1.7c0,0.3-0.1,0.4-0.3,0.4c-0.8,0.3-1.6,0.3-2.5,0.5c-0.7,0.1-1.5,0.1-2.2,0.1
		c-1.5-0.1-3-0.4-4.2-1.3c-1.3-0.9-1.9-2.1-2.4-3.6c-0.5-1.8-0.4-3.6-0.4-5.4c0-7.3,0-14.5,0-21.8c0-0.2,0-0.4,0-0.6
		c0.2-0.1,0.5,0,0.7,0c1.7,0,3.4,0,5.2,0c0.2,0,0.4,0,0.5,0.1c0,2.3,0,4.6,0,7c0,0.5,0.1,0.6,0.6,0.6c1.7,0,3.4,0,5.1,0
		c0.1,0.3,0,0.6,0,0.9c0,1.6,0,3.1,0,4.7c0,0.2,0,0.4,0,0.5c-1.7,0-3.4,0-5.1,0c-0.5,0-0.6,0.1-0.6,0.6c0,2.9,0,5.8,0,8.7
		c0,1.1,0,2.2,0.8,3.1c0.5,0.6,1.2,0.9,1.9,1c0.8,0.1,1.6-0.1,2.3-0.2c0.3-0.1,0.4,0,0.4,0.3c0,0.3,0,0.6,0.1,0.9
		C175,97.4,175,98,175,98.6z"/>
	<path class="st0" d="M77.7,68.7c0,0.2,0,0.4,0,0.5c0,10.3,0,20.6,0,30.9c0,0.5-0.1,0.6-0.6,0.6c-1.8,0-3.6,0-5.4,0
		c-0.4,0-0.5-0.1-0.5-0.5c0-10.5,0-21,0-31.4c0-0.1,0-0.1,0-0.2c0.2-0.1,0.4,0,0.6,0c1.8,0,3.6,0,5.4,0
		C77.4,68.6,77.6,68.6,77.7,68.7z"/>
	<path class="st0" d="M152.1,81.1c0.3,0,0.3-0.2,0.4-0.4c0.7-1.9,2-3.3,3.8-4.2c1.2-0.6,2.4-0.5,3.7-0.5c0.2,0,0.4,0.2,0.3,0.4
		c0,1.9,0,3.7,0,5.6c0,0.4-0.2,0.4-0.5,0.3c-1.7-0.2-3.3-0.2-4.7,0.9c-0.9,0.7-1.5,1.6-1.9,2.7c-0.3,0.9-0.3,1.8-0.3,2.8
		c0,3.8,0,7.6,0,11.5c0,0.4-0.1,0.5-0.5,0.5c-1.9,0-3.8,0-5.8,0c-0.4,0-0.5-0.1-0.5-0.5c0-7.8,0-15.5,0-23.3c0-0.4,0.1-0.4,0.5-0.4
		c1.7,0,3.3,0,5,0c0.4,0,0.5,0.1,0.5,0.5C152.1,78.5,152.1,79.8,152.1,81.1z"/>
	<path class="st1" d="M217.8,90.9c-0.1-1.4,0.7-2.3,1.8-3c0.5-0.3,1-0.2,1.5,0c2.1,1,4.3,2,6.4,3c1.7,0.7,3.3,1.6,4.9,2.3
		c0.6,0.3,1.3,0.5,1.9,1c0.5,0.4,0.7,0.9,0.7,1.5c0.2,2.1-1.1,4.1-3,4.9c-0.8,0.3-1.6,0.2-2.4-0.3c-1-0.7-2-1.4-3-2.1
		c-1.4-1-2.7-2-4.1-2.9c-1.4-1-2.8-1.9-4.2-2.9C217.9,92,217.8,91.4,217.8,90.9z"/>
	<path class="st1" d="M203,90.9c-0.1,0.4-0.1,1-0.6,1.4c-1.4,1-2.8,1.9-4.1,2.9c-1.7,1.2-3.4,2.4-5.1,3.6c-0.8,0.5-1.5,1.1-2.3,1.6
		c-0.9,0.6-2.2,0.5-3.1-0.2c-0.9-0.8-1.6-1.7-1.9-2.9c-0.3-0.9-0.3-1.7,0.2-2.6c0.4-0.8,1.2-1,2-1.4c1.4-0.7,2.7-1.3,4.1-1.9
		c1.2-0.5,2.4-1.1,3.6-1.6c1.3-0.6,2.6-1.2,3.9-1.8c0.9-0.4,1.8-0.3,2.5,0.5C202.7,89.1,203,89.9,203,90.9z"/>
	<path class="st1" d="M200.5,81.6c-0.7,0.1-1.2-0.4-1.8-0.6c-1-0.5-2-0.9-3-1.4c-1.7-0.8-3.4-1.6-5.1-2.4c-1.2-0.6-2.5-1.1-3.7-1.7
		c-1-0.4-1.3-1.7-1.2-2.8c0.2-1.1,0.7-1.9,1.3-2.8c0.7-1,2.4-1.6,3.5-1.1c0.6,0.3,1.2,0.8,1.8,1.2c1.3,0.9,2.6,1.8,3.9,2.8
		c1.6,1.1,3.2,2.3,4.8,3.4c0.4,0.3,0.8,0.6,1.2,0.8c0.8,0.5,0.9,1.2,0.8,1.9c-0.1,1.1-0.7,1.9-1.6,2.5
		C201.1,81.6,200.8,81.7,200.5,81.6z"/>
	<path class="st1" d="M217.8,78.5c-0.3-1,0.6-1.5,1.3-1.9c1.6-1.1,3.2-2.2,4.7-3.3c2-1.4,4.1-2.9,6.2-4.3c0.6-0.4,1.8-0.4,2.5,0.1
		c1.6,1,2.5,2.5,2.5,4.4c0,1-0.4,1.8-1.4,2.2c-1.9,0.8-3.8,1.8-5.7,2.7c-2.3,1.1-4.6,2.2-6.9,3.2c-0.6,0.3-1.3,0.1-1.8-0.3
		C218.4,80.6,217.7,79.7,217.8,78.5z"/>
	<path class="st1" d="M214.2,59.9c-0.2,1.5-0.2,3-0.4,4.5c-0.1,0.7-0.1,1.4-0.2,2c-0.1,1.4-0.2,2.8-0.4,4.1
		c-0.1,0.6-0.1,1.3-0.1,1.9c-0.1,0.5-0.1,1-0.1,1.5c-0.1,0.9-0.8,1.3-1.7,1.5c-1.1,0.2-2.2,0.1-3-0.8c-0.3-0.3-0.4-0.6-0.3-0.9
		c0-1.1-0.2-2.1-0.3-3.2c-0.1-1.3-0.2-2.7-0.4-4c-0.1-0.6-0.1-1.2-0.1-1.8c-0.1-1.5-0.3-3-0.4-4.5c-0.2-1.9,0.4-2.7,2.4-3.3
		c1.1-0.3,2.2-0.3,3.3,0.2c0.6,0.3,1.2,0.7,1.6,1.3C214.2,59,214.1,59.5,214.2,59.9z"/>
	<path class="st1" d="M210.5,112.3c-1.1,0.1-2-0.2-2.9-0.8c-1-0.7-1-1.6-0.9-2.6c0-0.5,0.2-1,0.2-1.5c0.1-1.7,0.3-3.4,0.4-5.1
		c0.1-0.9,0.2-1.9,0.2-2.8c0.1-1.4,0.3-2.7,0.4-4.1c0.1-0.9,0.8-1.4,1.6-1.6c0.9-0.2,1.8-0.2,2.6,0.3c0.6,0.3,0.8,0.8,0.9,1.5
		c0.1,1.4,0.2,2.9,0.4,4.3c0.1,0.9,0.2,1.8,0.2,2.7c0.1,1.7,0.3,3.4,0.4,5.1c0.1,0.8,0.2,1.6,0.1,2.4c-0.1,0.6-0.4,1.1-0.9,1.5
		C212.4,112.1,211.5,112.4,210.5,112.3z"/>
	<path class="st2" d="M77.7,68.7c-2.2,0-4.3,0-6.5,0c0-0.1,0.2-0.1,0.3-0.1c2,0,4,0,6,0C77.6,68.6,77.7,68.5,77.7,68.7z"/>
	<path class="st2" d="M169.5,68.7c-2.1,0-4.3,0-6.4,0c0-0.1,0.2-0.1,0.3-0.1c2,0,3.9,0,5.9,0C169.3,68.6,169.4,68.5,169.5,68.7z"/>
	<path class="st3" d="M175.2,82.4c0-2.1,0-4.1,0-6.2c0.1,0,0.1,0.2,0.1,0.3c0,1.9,0,3.8,0,5.6C175.3,82.2,175.3,82.3,175.2,82.4z"/>
	<path class="st4" d="M88.5,76.6c-2.1,0-4.1,0-6.2,0c0-0.1,0.2-0.1,0.3-0.1c1.9,0,3.8,0,5.6,0C88.3,76.5,88.5,76.5,88.5,76.6z"/>
	<path class="st2" d="M175,98.6c-0.2-0.6-0.1-1.2,0-1.8C175,97.4,175,98,175,98.6z"/>
	<path class="st5" d="M120.9,93.4c0.1,0.4,0.1,0.8,0,1.2C120.9,94.2,120.9,93.8,120.9,93.4z"/>
	<path class="st2" d="M107.4,81.6c0.3-0.1,0.6-0.1,0.9,0C107.9,81.6,107.6,81.6,107.4,81.6z"/>
	<path class="st6" d="M141.9,97.3c-0.2-0.2-0.1-0.5-0.1-0.8C142.1,96.8,141.9,97.1,141.9,97.3z"/>
	<g>
		<path class="st0" d="M67.2,100.5c-0.1-0.9-0.3-1.8-0.2-2.8c-0.1-0.2-0.1-0.4,0-0.5c-0.1-0.2-0.1-0.5-0.1-0.7c0-3.1,0-6.1,0-9.2
			c0-2.1-0.1-4.1-0.9-6.1c-0.7-1.7-1.9-3-3.5-3.9c-1.5-0.9-3.2-1.1-4.9-1.2c-1.7-0.1-3.3,0.1-4.9,0.3c-1.6,0.3-3.2,0.8-4.7,1.6
			c-0.3,0.1-0.3,0.3-0.3,0.5c0.4,1.3,0.8,2.5,1.1,3.8c0,0.2,0.1,0.3,0.4,0.1c0.4-0.3,0.8-0.5,1.3-0.6c1.9-0.7,3.9-1.3,6-1
			c0.9,0.1,1.7,0.4,2.4,0.9c1,0.7,1.4,1.8,1.3,3.1c-0.3,0.2-0.6,0-0.9,0.1c-1.5,0-3,0.1-4.5,0.4c-1.9,0.4-3.7,0.9-5.3,2
			c-2.1,1.4-3.3,3.4-3.5,5.9c-0.2,2,0.3,3.9,1.6,5.4c1,1.2,2.2,2,3.7,2.4c1.4,0.4,2.9,0.4,4.4,0.1c2-0.4,3.7-1.2,4.9-2.8
			c0.2-0.2,0.2-0.2,0.3,0.1c0.2,0.6,0.6,1.1,1,1.6c1.4,1.4,3.6,1.3,5.2,0.8C67.3,100.7,67.2,100.7,67.2,100.5z M60.3,90.9
			c0,1,0.1,2-0.3,2.9c-0.7,1.5-1.9,2.3-3.5,2.6c-1.4,0.3-3.2-0.3-3.8-1.8c-0.5-1.1,0-3.1,1-3.9c1.1-0.9,2.4-1.2,3.7-1.4
			c0.8-0.1,1.7-0.2,2.5-0.2c0.3,0,0.4,0.1,0.4,0.4C60.3,90,60.3,90.5,60.3,90.9z"/>
		<path class="st0" d="M60.1,84.8c-0.3,0.2-0.6,0.1-0.9,0.1C59.5,84.7,59.8,84.8,60.1,84.8z"/>
		<path class="st0" d="M67,97.7c-0.1-0.2-0.1-0.4,0-0.5C67,97.4,67,97.6,67,97.7z"/>
	</g>
	<g>
		<path class="st0" d="M142.3,100.5c-0.3-1-0.3-2.1-0.3-3.2c-0.1-0.2,0-0.5-0.1-0.8c0-3.5,0-7,0-10.5c0-1.4-0.2-2.8-0.7-4.2
			c-0.6-1.7-1.5-3.1-3-4.1c-1.8-1.2-3.8-1.6-5.9-1.7c-1.4-0.1-2.8,0.1-4.2,0.3c-1.8,0.3-3.5,0.8-5.2,1.6c-0.3,0.1-0.3,0.2-0.2,0.6
			c0.3,1.2,0.7,2.3,1,3.5c0.1,0.4,0.2,0.5,0.7,0.3c0.9-0.6,1.9-0.9,2.9-1.1c0.8-0.2,1.6-0.3,2.5-0.4c1.2-0.1,2.3,0,3.3,0.4
			c1.5,0.6,2.1,1.9,2.1,3.5c-0.3,0.2-0.6,0-0.9,0.1c-1.9,0-3.7,0.2-5.5,0.6c-1.4,0.3-2.8,0.8-4,1.6c-1.7,1-2.9,2.5-3.5,4.4
			c-0.2,0.6-0.2,1.3-0.3,1.9c0.1,0.4,0.1,0.8,0,1.2c0,0.1,0.1,0.2,0.1,0.3c0,1.3,0.5,2.4,1.2,3.3c1.1,1.6,2.7,2.5,4.6,2.9
			c2.2,0.4,4.3,0.1,6.2-0.8c1-0.5,1.9-1.3,2.6-2.1c1,3,3.9,3.4,6.4,2.6C142.3,100.7,142.3,100.7,142.3,100.5z M135.3,89.6
			c-0.1,1.2,0.1,2.3-0.1,3.5c-0.2,1.1-0.8,1.8-1.6,2.4c-0.7,0.6-1.6,0.8-2.5,1c-1.3,0.2-2.8-0.6-3.3-1.8c-0.1-0.3-0.2-0.6-0.2-0.9
			c-0.1-0.3-0.1-0.6,0-0.9c0.3-2.1,1.7-2.9,3.5-3.4c1.2-0.3,2.5-0.5,3.8-0.5C135.2,89.1,135.4,89.2,135.3,89.6z"/>
		<path class="st0" d="M135.1,84.8c-0.3,0.2-0.6,0.1-0.9,0.1C134.5,84.7,134.8,84.8,135.1,84.8z"/>
	</g>
	<path class="st7" d="M127.6,93c0,0.3,0,0.6,0,0.9C127.4,93.5,127.4,93.2,127.6,93z"/>
</g>
</svg>
